<svg width="86" height="42" viewBox="0 0 86 42" fill="none" xmlns="http://www.w3.org/2000/svg">
<path d="M47.4671 1.84285C36.0407 1.84285 25.7097 1.29365 15.6109 6.90412C12.1747 8.81308 6.91251 10.6387 5.05828 14.3472C3.02245 18.4188 2.21338 21.9288 2.21338 26.5538C2.21338 29.741 8 32 10.5 35C14.5 37.5 19.5988 38.0256 22.7562 38.7273C25.0096 39.2281 28.6822 39.9513 31 39.9513C34.4451 39.9513 37.5907 39.9513 41 39.9513C46.066 39.9513 50.578 39.9513 55.8034 39.9513C64.7738 39.9513 72.7126 35.2817 78.8934 29.101C82.2877 25.7066 83.7892 23.416 83.7892 18.2176C83.7892 13.8286 80.5793 11.9974 77.7025 9.1205C71.8106 3.22861 63.2263 3.62918 55.2079 3.62918C51.377 3.62918 45.8121 2.62998 42.4059 4.52234C40.6106 5.51972 38.1036 5.49911 36.1537 6.47408C34.572 7.26492 32.5207 8.98818 30.7947 8.98818" stroke="black" stroke-width="3" stroke-linecap="round"/>
</svg>
