<svg width="48" height="33" viewBox="0 0 48 33" fill="none" xmlns="http://www.w3.org/2000/svg">
<path d="M8.26578 29.4888C6.81223 29.3125 4.71815 28.5402 3.60531 27.5688C3.15093 27.1721 2.34152 26.3441 2.27375 25.7525C2.23501 25.4144 1.53441 23.6127 1.31074 23.4174C0.680672 22.8674 1.20374 18.4195 1.20374 17.4628C1.20374 16.631 2.66962 12.7969 3.55776 12.6757C4.22592 12.5846 5.39304 11.5443 5.91177 11.0411C6.26161 10.7018 7.47102 9.45655 7.83778 9.40653C8.33935 9.33811 9.60095 8.39413 10.0253 8.05733C10.3772 7.77811 11.1452 7.68692 11.5828 7.42165C11.938 7.20633 12.3785 7.27347 12.7598 7.07138C13.2071 6.83431 13.5763 6.46545 14.0438 6.26705C19.466 3.96614 24.9492 2.82072 30.617 1.58379C33.3045 0.997278 36.0192 1 38.7728 1C40.567 1 42.1698 1.57606 43.9089 1.92109C45.0889 2.1552 45.5754 3.29291 46.1916 4.21731C46.4969 4.67551 46.358 5.45752 46.358 6.02056C46.358 6.90212 46.6003 7.73139 46.7384 8.6022C46.9704 10.0647 47 11.4251 47 12.9092C47 13.8244 46.2015 15.5303 45.502 15.9968C45.028 16.3129 44.4946 17.4504 44.1229 17.9298C43.5606 18.6549 43.0198 19.354 42.399 20.0314C41.4267 21.0924 40.4497 22.1929 39.617 23.4044C38.4669 25.0777 36.6599 25.7961 35.0278 26.6866C30.6837 29.0567 26.4071 30.6565 21.5814 31.4088C19.5724 31.722 17.618 31.8239 15.5894 31.8239C14.4544 31.8239 11.912 32.2891 10.7387 31.7072C8.95745 30.8237 7.65648 29.7937 6.76777 27.8542" stroke="white" stroke-linecap="round"/>
</svg>
