<svg width="51" height="34" viewBox="0 0 51 34" fill="none" xmlns="http://www.w3.org/2000/svg">
<path d="M13.436 24.4894C10.215 24.4894 6.16842 22.1625 3.85122 20.0638C2.52164 18.8596 1.0113 15.8728 1.0113 14.1064C1.0113 12.0024 0.785528 9.7428 2.35238 8.07329C3.55173 6.79534 4.22618 4.2772 6.17838 3.74232C8.31747 3.15623 10.5913 2.09948 12.8838 1.69976C16.1979 1.12191 19.4733 1 22.9418 1C26.4589 1 29.9759 1 33.4929 1C34.8331 1 36.2851 1.5193 37.4176 2.2104C38.8692 3.09628 40.9563 3.62368 42.1902 4.74468C45.5443 7.79186 47.947 11.1192 48.9548 15.4681C49.4322 17.5286 50 19.6105 50 21.766C50 24.0337 48.553 25.1962 46.9826 26.7021C44.8217 28.7743 43.4494 29.8721 40.3955 30.7872C35.3266 32.3063 29.566 33 24.2435 33C20.6098 33 17.6277 33.0059 14.6784 30.8061C12.9277 29.5003 12.1624 28.2744 10.951 26.5319" stroke="white" stroke-linecap="round"/>
</svg>
