<svg width="51" height="29" viewBox="0 0 51 29" fill="none" xmlns="http://www.w3.org/2000/svg">
<path d="M24.897 3.79681C23.0022 3.79681 20.9721 3.5557 19.2166 4.37768C17.0942 5.37146 14.8409 5.94875 12.7309 6.99162C10.4887 8.09981 8.2068 9.3785 6.13633 10.7673C5.62158 11.1126 4.80487 11.3869 4.48226 11.929C3.78257 13.1048 2.35412 13.8547 1.78351 15.1239C1.14353 16.5473 1 17.5255 1 19.0932C1 19.6523 1.86322 20.2054 2.17526 20.6852C2.86563 21.7467 3.43795 22.7333 4.42785 23.5573C5.51554 24.4627 6.56438 25.6345 7.9754 26.0636C9.14886 26.4206 10.2729 26.9852 11.425 27.419C13.0264 28.0221 14.4858 27.9999 16.1914 27.9999C18.6362 27.9999 21.081 27.9999 23.5259 27.9999C25.7504 27.9999 28.1583 27.4391 30.3163 26.9242C32.366 26.4351 34.483 25.8672 36.4646 25.1816C39.4373 24.1531 42.5261 22.8517 45.2682 21.4167C47.1923 20.4097 47.838 18.8375 48.6961 16.9525C50.3137 13.3991 49.9693 9.38004 49.9693 5.53943C49.9693 4.20321 46.0774 3.15768 45.1921 2.83944C42.1552 1.74785 38.6289 1.08606 35.3873 1.08606C33.0727 1.08606 30.4712 0.760246 28.2269 1.3765C27.2288 1.65056 25.8872 1.80098 25.0058 2.35538C24.3599 2.76169 23.7059 3.02231 22.9382 3.02231" stroke="white" stroke-linecap="round"/>
</svg>
