<svg width="44" height="35" viewBox="0 0 44 35" fill="none" xmlns="http://www.w3.org/2000/svg">
<path d="M35.8034 33.8315C25.5428 33.8315 13.8079 35.5353 4.63104 30.2914C1.47894 28.4902 0.845125 21.9787 0.845125 18.7862C0.845125 17.1723 0.338121 14.412 1.97598 13.4761C3.75703 12.4583 6.22106 10.3127 7.70403 8.82971C12.2708 4.26298 18.7502 2.50097 24.9128 1.55288C28.0484 1.07048 32.3259 1.06192 35.0167 2.85583C36.1928 3.6399 38.0618 4.25139 38.8027 5.51089C39.2113 6.20567 39.9795 7.22857 40.5727 7.82177C43.9597 11.2088 43.3261 17.64 43.3261 22.105C43.3261 23.259 42.1978 27.4979 41.4577 28.4231C40.0915 30.1308 39.7457 30.8949 37.5735 31.619" stroke="white" stroke-linecap="round"/>
</svg>
