<svg width="344" height="11" viewBox="0 0 344 11" fill="none" xmlns="http://www.w3.org/2000/svg">
<path d="M1.85107 6.13112C23.6843 6.13112 45.5174 6.13112 67.3506 6.13112C76.7371 6.13112 86.063 7.12521 95.4337 7.12521C107.492 7.12521 119.55 7.12521 131.608 7.12521C172.339 7.12521 213.021 8.1193 253.743 8.1193C263.354 8.1193 272.966 8.61635 282.599 8.61635C293.54 8.61635 304.077 7.21966 314.962 6.13112C316.911 5.93621 318.478 5.23311 320.457 5.10942C322.625 4.97394 324.903 4.67866 327.029 4.25339C329.152 3.82895 330.943 3.62471 332.883 2.76226C334.768 1.92481 340.891 2.26484 341.83 4.14294" stroke="black" stroke-width="3" stroke-linecap="round"/>
</svg>
