<svg width="325" height="11" viewBox="0 0 325 11" fill="none" xmlns="http://www.w3.org/2000/svg">
<path d="M2.26538 5.67656C8.90186 5.67656 15.5383 5.67656 22.1748 5.67656C27.8253 5.67656 32.8141 5.7261 38.1631 3.68838C41.401 2.45489 44.7219 2.69429 48.2421 2.69429C58.8365 2.69429 69.431 2.69429 80.0254 2.69429C92.2497 2.69429 103.991 4.99418 116.061 6.20122C123.829 6.97797 131.922 7.66194 139.643 8.90736C145.379 9.83251 151.657 9.15588 157.454 9.15588C162.59 9.15588 167.726 9.15588 172.862 9.15588C177.58 9.15588 182.217 8.16179 186.945 8.16179C192.553 8.16179 198.182 7.66474 203.817 7.66474C214.8 7.66474 225.953 8.27032 236.871 7.05724C249.152 5.6927 261.504 2.69429 273.873 2.69429C279.684 2.69429 285.649 2.19724 291.546 2.19724C295.605 2.19724 299.664 2.19724 303.723 2.19724C310.274 2.19724 316.157 3.11125 322.86 1.7002" stroke="black" stroke-width="3" stroke-linecap="round"/>
</svg>
