<svg width="96" height="96" viewBox="0 0 96 96" fill="none" xmlns="http://www.w3.org/2000/svg">
<g clip-path="url(#clip0_501_1146)">
<path d="M9.78554 75.1095L10.0259 75.434C10.2737 75.7661 10.7393 76.6114 11.3852 77.7736C13.6457 81.8265 18.3469 90.2491 21.2157 90.6491C21.6062 90.7019 21.9292 90.5963 22.2221 90.3019C24.8055 87.7208 18.3244 79.434 15.5607 75.9019C13.916 73.8038 13.7433 73.5623 13.8935 73.2302C14.239 72.4755 15.1101 71.8793 16.2066 71.1321C18.6098 69.4944 22.2446 67.0114 22.928 60.6038C23.2059 58.0302 21.8391 54.5133 20.0066 53.0793C17.2279 50.9057 13.4729 52.3246 11.0923 54.2038C10.1836 54.9208 6.63136 59.3963 5.42225 64.0302C4.81394 66.3548 4.5586 68.1736 4.17559 70.9208C4.00286 72.1661 3.8001 73.5925 3.52974 75.3359C2.68862 80.7623 3.1242 92.0906 4.00286 93.5623L4.02539 93.6076C4.2582 93.9925 4.97165 94.9057 5.79775 95.0944C6.20329 95.185 6.59381 95.1019 6.99183 94.8378C6.99183 94.8378 7.99817 94.0151 8.02821 92.9284C8.05825 91.8567 7.98315 90.3623 7.89303 88.634C7.62267 83.5472 7.28472 77.2151 9.45511 75.3812L9.76301 75.1246L9.78554 75.1095Z" fill="#2B2E2E"/>
<path d="M83.1128 29.238C82.4745 29.6682 81.9338 30.0455 80.8073 29.8644C79.9511 29.721 78.9598 29.0267 78.6069 28.2946C77.5029 26.038 76.6092 23.6682 75.7606 21.2908C74.9195 18.9135 74.2661 16.4682 73.455 14.0833C73.1621 13.2304 72.336 10.8908 71.8704 10.8833C71.5174 10.8833 70.5562 13.9248 70.0755 15.087C69.4071 16.687 68.904 18.3927 68.0403 19.8795C66.7786 22.038 64.6909 21.9625 63.5644 19.7889C62.7608 18.2418 60.5904 12.8833 60.1549 12.8229C59.3288 12.8984 59.9971 24.5285 59.1185 26.921C58.9082 27.4795 57.977 28.1059 57.4062 28.0757C55.4987 28.1436 55.4836 26.0455 55.4987 25.6682C55.6113 20.4229 55.5738 15.1701 55.9568 9.94741C56.1295 7.62288 56.3097 3.92477 58.8706 3.78137C61.3715 3.54741 64.3004 14.0002 65.5771 14.0078C66.5308 14.0002 68.0929 8.80024 68.5585 6.18137C68.8289 4.65685 68.8439 3.0493 69.3621 1.61534C69.6249 0.890809 70.6763 0.151186 71.5024 0.0304312C72.4186 -0.0978707 73.0495 0.634205 73.2598 1.20024C74.6791 4.61156 75.693 8.14364 76.8045 11.6531C77.623 14.2418 78.4792 16.4908 79.3954 19.0418C80.4994 22.1135 84.3144 27.804 83.1128 29.2531V29.238Z" fill="#2B2E2E"/>
<path d="M87.8293 49.5925C87.4012 49.683 84.0818 50.951 81.949 51.5849C78.2315 52.6868 75.7532 51.3359 75.4904 47.5396C75.2351 43.8038 74.6943 39.2755 76.2639 35.7208C76.6544 34.8378 77.5031 34.0755 78.5319 34.5736C79.0576 34.8302 79.5608 35.7208 79.5683 36.3321C79.5833 37.6453 79.2754 39.3887 79.0802 40.7019C78.7647 48.7396 80.9501 47.6 83.9391 46.8378C86.8229 45.751 88.2724 45.8491 88.8131 44.083C89.1886 42.8604 90.7356 34.0604 92.3578 33.0264C92.6807 32.8227 93.6795 32.4755 94.4005 32.6944C95.8199 33.1547 95.1064 35.517 94.9487 36.0604C92.0499 46.3396 92.2527 54.3774 94.806 66.9434C95.2416 68.5812 95.9851 70.3925 95.9851 71.8944C96.0527 72.4076 95.8124 73.1849 94.8436 73.517C94.2803 73.683 93.2965 73.3359 92.8835 72.8755C92.2902 72.2113 91.9523 71.2604 91.6744 70.3774C90.1799 65.6453 89.1736 58.9962 89.0684 54.0302C89.0234 51.9698 88.9708 49.3661 87.8293 49.6076V49.5925Z" fill="#2B2E2E"/>
<path d="M56.062 51.6227C56.0169 52.1208 64.8862 48.2038 65.1565 50.8453C65.2091 51.3284 64.9613 52.1133 64.5933 52.3321C63.6395 52.9057 56.2647 54.6718 55.4912 55.4265C55.2434 55.6755 55.1457 56.7019 55.0031 57.7963C54.5975 60.8378 54.5525 62.6567 57.3086 62.3019C59.9296 61.9699 64.0676 60.4151 66.666 59.9095C67.6198 59.7208 68.551 59.5623 69.1969 60.4906C69.7076 61.2151 69.0692 62.3548 67.4921 62.9887C65.0439 63.9699 62.5356 64.8151 60.0047 65.5699C57.4964 66.317 53.2983 68 51.9765 67.6151C51.3006 67.4189 51.0228 66.1284 51.0979 65.3736C51.7287 58.9585 52.0216 52.4076 52.9829 46.1133C53.5987 43.3283 54.8529 41.668 57.5489 41.0189C60.6731 40.2642 63.7747 39.434 66.9064 38.7019C68.3333 38.3699 69.6625 38.9661 69.7226 39.8642C69.8127 41.2302 68.889 41.9321 67.8151 42.3774C66.0652 43.1019 59.081 44.9133 57.579 45.6831C56.4375 46.2642 56.3098 49.1774 56.0695 51.6227H56.062Z" fill="#2B2E2E"/>
<path d="M42.2737 24.2266C41.5452 23.6379 38.2934 23.8719 36.4459 23.653C34.3582 23.4039 33.3218 23.0039 32.8336 26.219C32.3305 28.0153 31.955 29.8568 31.2565 31.5624C31.0538 32.053 29.9048 32.37 29.1988 32.3624C27.2087 32.4832 27.5992 30.3247 27.6593 29.9398C28.185 24.0907 28.3577 22.1285 29.8972 16.453C30.7684 13.2379 32.1202 10.1285 33.5546 7.12469C34.5159 5.10205 35.6048 3.68318 37.0993 1.99262C38.1056 0.86054 40.4412 0.815257 41.2673 2.14356C41.9132 3.17752 42.4614 4.36243 42.6867 5.54733C43.1599 8.00771 44.9622 18.7171 49.7386 28.3549C50.2943 29.57 50.5872 30.8153 49.4457 31.7134C48.5145 32.453 47.0725 32.136 46.1939 30.9285C45.4579 29.9171 43.4377 25.1549 42.2737 24.219V24.2266Z" fill="#2B2E2E"/>
<path d="M44.7067 38.4755C44.902 37.3661 45.2625 36.2114 46.7194 36.1661C47.6807 36.1359 48.1989 37.2755 48.0111 38.8831C47.5981 42.4529 47.2601 46.0378 46.7494 49.6001C45.5253 58.0906 45.7882 66.634 45.9233 75.1548C46.0135 81.0189 46.5241 86.8755 46.8696 92.7397C46.9822 94.6491 46.4791 95.8265 45.3976 95.985C44.0008 96.1812 42.8668 94.8378 42.8668 92.8906C42.8668 92.2718 41.8905 76.7171 42.4162 60.9888C42.6865 52.8378 43.9032 44.4605 44.7142 38.4755H44.7067Z" fill="#2B2E2E"/>
<path d="M1.1714 4.15835C1.2465 3.80363 2.04256 3.3659 2.48564 3.38854C2.93624 3.41118 4.40069 3.38854 4.56591 5.13194C5.22678 12.1131 5.03153 37.63 4.94141 50.2716C4.97896 52.5734 3.46945 53.3282 2.66588 53.3961C-0.0001569 53.63 0.427912 50.1055 0.420402 48.9885C0.375342 42.347 -0.886334 11.3508 1.1714 4.1659V4.15835Z" fill="#2B2E2E"/>
<path d="M33.5994 56.0303C35.7623 56.0303 33.9449 61.4642 33.7947 62.6793C33.269 67.102 33.2464 70.1435 34.7034 74.1812C34.9061 74.6114 35.169 75.3284 34.8385 75.8567C34.4706 76.4529 33.9674 76.6944 33.4041 76.8605C32.8784 77.0114 31.9097 76.6265 31.5567 76.151C29.3638 73.8642 29.4088 56.0303 33.5994 56.0303Z" fill="#2B2E2E"/>
<path d="M31.6167 40.9737C31.1737 39.019 32.6907 38.2643 33.9599 38.2492C34.9812 38.2341 36.0551 39.4039 36.0401 40.5133C36.0251 41.6077 35.0638 42.6643 33.8021 42.5662C33.0587 42.5058 31.9772 42.5963 31.6092 40.9737H31.6167Z" fill="#2B2E2E"/>
<path d="M16.6045 24.0906C16.7848 23.0944 17.4907 22.2642 18.5346 22.4755C21.2532 23.5548 20.8477 34.6944 21.2382 39.7736C21.3208 40.8302 20.9828 41.8566 19.8789 41.7887C19.1204 41.7359 18.1065 41.985 17.7761 40.3699C17.0927 36.2868 16.3642 25.3812 16.597 24.0906H16.6045Z" fill="#2B2E2E"/>
<path d="M17.2731 7.31332C16.079 7.31332 15.1853 6.28691 15.328 5.03408C15.4481 3.95483 16.1165 3.2454 17.1604 3.26049C18.3395 3.27558 18.6324 4.28691 18.73 5.26804C18.8426 6.42275 18.1667 7.31332 17.2731 7.31332Z" fill="#2B2E2E"/>
</g>
<defs>
<clipPath id="clip0_501_1146">
<rect width="96" height="96" fill="white"/>
</clipPath>
</defs>
</svg>
