<svg width="34" height="12" viewBox="0 0 34 12" fill="none" xmlns="http://www.w3.org/2000/svg">
<path d="M2.97168 0.871082C2.97168 -2.57871 2.97168 7.77067 2.97168 11.2205" stroke="white" stroke-linecap="round"/>
<path d="M1 0.624512C3.38378 0.624512 5.23751 1.15612 7.03714 2.59582C8.44792 3.72445 4.05984 8.4691 3.21772 6.78486" stroke="white" stroke-linecap="round"/>
<path d="M10.8563 0.624512C10.8563 3.33594 10.6099 5.90819 10.6099 8.63296C10.6099 9.3722 10.6099 10.1114 10.6099 10.8507C10.6099 11.337 11.5676 10.3306 11.9514 10.221C12.5575 10.0478 13.1074 9.49541 13.8132 9.49541C14.5525 9.49541 15.2917 9.49541 16.031 9.49541" stroke="white" stroke-linecap="round"/>
<path d="M18.2612 9.54396C18.2612 8.60891 18.9052 7.84107 19.2309 6.96164C19.3811 6.55603 19.6853 5.99122 19.9687 5.65467C20.2643 5.30368 20.3829 4.74955 20.6749 4.37405C21.1358 3.7815 21.2864 2.95085 21.5814 2.28712C21.6897 2.04341 22.0965 0.667873 22.3402 0.911637C23.0019 1.57329 23.4487 2.47695 23.7421 3.35693C23.8604 3.71194 23.969 4.0783 24.1215 4.42148C24.3562 4.94947 24.0536 5.66235 24.2849 6.17113C24.5671 6.79194 24.3323 7.96946 24.3323 8.64278C24.3323 9.32262 24.3323 10.0025 24.3323 10.6823" stroke="white" stroke-linecap="round"/>
<path d="M20.4424 6.604H24.3317" stroke="white" stroke-linecap="round"/>
<path d="M25.9453 1.57563C25.9852 1.25671 26.9878 2.3862 27.1047 2.50315C27.3244 2.7228 27.4611 3.09181 27.7002 3.28312C27.8589 3.41001 28.0794 3.70918 28.1324 3.89444C28.2268 4.22494 28.5976 4.5078 28.7701 4.80089C29.0963 5.35559 30.2921 3.83594 30.5461 3.52554C31.1266 2.81593 31.6957 2.07083 32.3748 1.45969C32.5795 1.27541 32.7506 1.08383 32.9439 0.890522C33.1219 0.712585 32.8271 0.954597 32.7753 1.00646C32.534 1.24774 32.3321 1.47292 32.1534 1.76535C31.6057 2.66161 30.7619 3.58905 30.0243 4.32659C29.0495 5.30138 28.7894 6.74526 28.691 8.07358C28.6345 8.83637 28.6014 9.584 28.6014 10.3502C28.6014 10.5664 28.5722 11.3609 28.4117 11.4411" stroke="white" stroke-linecap="round"/>
</svg>
