<svg width="27" height="14" viewBox="0 0 27 14" fill="none" xmlns="http://www.w3.org/2000/svg">
<path d="M1.09814 3.54834C1.09814 6.75617 1.45244 10.0883 1.45244 13.1143" stroke="white" stroke-linecap="round"/>
<path d="M1.80664 3.1942C3.43591 3.1942 5.57572 2.78706 5.70387 4.96567C5.79263 6.47461 4.21263 7.44572 2.86952 7.44572" stroke="white" stroke-linecap="round"/>
<path d="M7.83008 3.90283C7.83008 6.39014 8.40507 8.71755 8.53867 10.9887C8.68739 13.517 12.7871 9.21116 13.8531 11.343" stroke="white" stroke-linecap="round"/>
<path d="M15.27 11.3431C15.27 9.18496 14.6913 6.19412 15.2897 4.09978C15.7358 2.53828 16.2897 1.55106 17.1202 3.62738C17.8414 5.43044 19.1374 10.0882 20.9387 10.9888" stroke="white" stroke-linecap="round"/>
<path d="M14.9155 8.50888C16.301 8.50888 16.9809 8.54916 18.1042 7.80029" stroke="white" stroke-linecap="round"/>
<path d="M19.5215 2.48552C20.4197 3.49605 22.1727 6.02846 23.5959 6.02846C24.6189 6.02846 25.2968 2.5551 25.5642 1.61947C26.4443 -1.46113 23.4187 7.7847 23.4187 10.9886" stroke="white" stroke-linecap="round"/>
</svg>
