<svg width="34" height="14" viewBox="0 0 34 14" fill="none" xmlns="http://www.w3.org/2000/svg">
<path d="M1 1.62354C1 2.62593 1 3.62833 1 4.63073C1 5.55528 1.21103 6.43992 1.21103 7.36828C1.21103 7.58588 1.35584 7.85356 1.39862 8.08345C1.46143 8.42108 1.40411 8.77401 1.42206 9.11515C1.46615 9.95285 1.52758 10.7955 1.52758 11.6475" stroke="white" stroke-linecap="round"/>
<path d="M1.52734 1.5181C2.66652 1.5181 3.8057 1.5181 4.94488 1.5181C5.27627 1.5181 5.74797 1.36842 5.74797 1.78189C5.74797 2.6014 5.86558 3.5117 5.74211 4.31426C5.57576 5.39554 3.94211 5.92265 3.11008 6.47734" stroke="white" stroke-linecap="round"/>
<path d="M9.75781 2.25635C9.75781 3.73357 9.75781 5.21079 9.75781 6.68801C9.75781 7.40076 9.85043 8.089 9.86333 8.79832C9.87367 9.36718 10.0744 9.92166 10.0744 10.4866C10.0744 10.7692 10.075 10.9839 10.1564 11.2486C10.219 11.4519 10.1119 11.7998 10.4554 11.7469C10.9175 11.6758 11.3924 11.5417 11.8623 11.5417C12.636 11.5417 13.4098 11.5417 14.1836 11.5417C15.1613 11.5417 16.0227 11.5286 16.9329 11.2252" stroke="white" stroke-linecap="round"/>
<path d="M18.6209 11.1194C18.6209 8.71601 18.2905 6.0229 19.0898 3.73913C19.2332 3.32961 19.1387 2.86182 19.336 2.46707C19.535 2.06908 19.6664 1.64575 19.8871 1.25951C20.4572 0.261751 20.3703 2.45056 20.4674 2.62535C20.7099 3.06188 20.7379 3.63975 20.995 4.10257C21.1536 4.38806 21.1642 4.70426 21.2822 5.0229C21.5159 5.65392 22.0406 6.09422 22.3374 6.68771C22.4753 6.96352 22.598 7.22124 22.7419 7.48494C23.0707 8.08787 23.6502 8.52328 23.9787 9.11457C24.1334 9.39304 24.1926 9.62204 24.3187 9.90594C24.4589 10.2214 24.8463 10.4459 24.8463 10.8028" stroke="white" stroke-linecap="round"/>
<path d="M18.6206 6.89941H21.153" stroke="white" stroke-linecap="round"/>
<path d="M27.1675 1.62354C27.1675 2.54952 27.455 3.04278 27.8533 3.83937C28.1613 4.45537 28.4624 5.05168 29.014 5.48072C29.7562 6.058 30.0546 4.77336 30.4385 4.36695C31.0479 3.72168 31.9148 3.21423 32.4433 2.49111C32.5849 2.29724 33.0036 1.71155 32.8536 1.89905C32.3581 2.51843 31.9059 3.17759 31.4467 3.8335C31.071 4.37029 30.793 4.9588 30.3916 5.47486C30.2474 5.66017 29.9983 5.94227 29.9109 6.16071C29.7283 6.61714 29.5042 7.07951 29.2778 7.53242C29.054 7.98007 29.0119 8.47389 28.8557 8.95102C28.4471 10.1997 28.1171 11.704 28.1171 13.0192" stroke="white" stroke-linecap="round"/>
</svg>
