<svg width="905" height="28" viewBox="0 0 905 28" fill="none" xmlns="http://www.w3.org/2000/svg">
<path d="M3.40723 23.843C49.525 23.843 95.6428 23.843 141.761 23.843C186.256 23.843 231.232 25.7383 275.679 23.5569C337.747 20.5106 399.917 9.6786 462.105 9.6786C506.509 9.6786 550.316 3.24023 594.735 3.24023C631.124 3.24023 667.513 3.24023 703.901 3.24023C724.933 3.24023 745.965 3.24023 766.997 3.24023C786.388 3.24023 805.316 7.10325 824.37 7.10325C840.341 7.10325 856.141 10.9663 871.871 10.9663C877.033 10.9663 883.67 12.3561 888.682 13.4701C892.007 14.2088 900.646 11.7152 902.203 14.8293" stroke="black" stroke-width="5" stroke-linecap="round"/>
</svg>
