<?xml version="1.0" standalone="no"?>
<!DOCTYPE svg PUBLIC "-//W3C//DTD SVG 20010904//EN"
 "http://www.w3.org/TR/2001/REC-SVG-20010904/DTD/svg10.dtd">
<svg version="1.0" xmlns="http://www.w3.org/2000/svg"
 width="360.000000pt" height="360.000000pt" viewBox="0 0 360.000000 360.000000"
 preserveAspectRatio="xMidYMid meet">
<metadata>
Created by potrace 1.14, written by Peter Selinger 2001-2017
</metadata>
<g transform="translate(0.000000,360.000000) scale(0.100000,-0.100000)"
fill="#000000" stroke="none">
<path d="M1615 3560 c-27 -4 -72 -11 -99 -14 -27 -4 -53 -9 -57 -11 -4 -3 -24
-7 -45 -11 -71 -11 -271 -82 -376 -133 -243 -119 -463 -297 -638 -517 -81
-101 -198 -309 -248 -439 -30 -80 -80 -247 -87 -295 -29 -181 -33 -231 -30
-385 1 -93 5 -179 8 -190 2 -11 8 -42 11 -70 38 -271 176 -582 364 -820 102
-130 290 -301 417 -381 17 -10 32 -21 35 -24 22 -23 239 -128 338 -164 80 -28
210 -65 256 -71 15 -2 35 -6 45 -9 48 -14 146 -20 316 -20 223 1 353 21 546
84 656 215 1132 794 1217 1480 9 75 8 361 -1 440 -37 307 -178 638 -375 885
-115 143 -243 262 -397 366 -108 73 -106 72 -220 128 -151 75 -337 133 -538
167 -52 9 -388 12 -442 4z"/>
</g>
</svg>
